<svg xmlns="http://www.w3.org/2000/svg" width="16" height="16" viewBox="0 0 16 16" fill="none">
  <g clip-path="url(#clip0_366_3792)">
    <path d="M8.00004 14.6666C6.57055 14.6666 5.54186 14.6659 4.73984 14.5882C3.94701 14.5113 3.43984 14.3636 3.03509 14.1093C2.57249 13.8186 2.18132 13.4275 1.89065 12.9649C1.6364 12.5602 1.48863 12.053 1.41186 11.2602C1.33408 10.4582 1.33337 9.42947 1.33337 7.99998C1.33337 6.57048 1.33408 5.5418 1.41186 4.73978C1.48863 3.94695 1.6364 3.43978 1.89065 3.03503C2.18131 2.57242 2.57248 2.18125 3.03509 1.89059C3.43984 1.63634 3.94701 1.48857 4.73984 1.4118C5.54176 1.33402 6.57044 1.33331 8.00004 1.33331C9.42954 1.33331 10.4582 1.33402 11.2602 1.4118C12.0531 1.48857 12.5602 1.63634 12.965 1.89059C13.4276 2.18126 13.8187 2.57243 14.1093 3.03503C14.3637 3.43978 14.5114 3.94695 14.5882 4.73978C14.666 5.5418 14.6667 6.57048 14.6667 7.99998C14.6667 9.42947 14.666 10.4582 14.5882 11.2602C14.5114 12.053 14.3637 12.5602 14.1093 12.9649C13.8187 13.4275 13.4276 13.8186 12.965 14.1093C12.5602 14.3636 12.0531 14.5113 11.2602 14.5882C10.4582 14.6659 9.42954 14.6666 8.00004 14.6666Z" fill="white" stroke="white" stroke-width="2"/>
    <path d="M8.00004 11.3333C9.4728 11.3333 10.6667 10.1394 10.6667 8.66667C10.6667 7.19391 9.4728 6 8.00004 6C6.52728 6 5.33337 7.19391 5.33337 8.66667C5.33337 10.1394 6.52728 11.3333 8.00004 11.3333Z" fill="white" stroke="black" stroke-width="2"/>
    <path d="M11.25 5.5C11.6642 5.5 12 5.16421 12 4.75C12 4.33579 11.6642 4 11.25 4C10.8358 4 10.5 4.33579 10.5 4.75C10.5 5.16421 10.8358 5.5 11.25 5.5Z" fill="black"/>
  </g>
  <defs>
    <clipPath id="clip0_366_3792">
      <rect width="16" height="16" fill="white"/>
    </clipPath>
  </defs>
</svg>